Coordinates
version=1
nRows=7
nColumns=63
inDegrees=yes

Units are S.I. units (second, meters, Newtons, ...)
If the header above contains a line with 'inDegrees', this indicates whether rotational values are in degrees (yes) or radians (no).

endheader
time	pelvis_tilt	pelvis_list	pelvis_rotation	pelvis_tx	pelvis_ty	pelvis_tz	hip_flexion_r	hip_adduction_r	hip_rotation_r	knee_angle_r	knee_angle_r_beta	ankle_angle_r	subtalar_angle_r	mtp_angle_r	hip_flexion_l	hip_adduction_l	hip_rotation_l	knee_angle_l	knee_angle_l_beta	ankle_angle_l	subtalar_angle_l	mtp_angle_l	L5_S1_Flex_Ext	L5_S1_Lat_Bending	L5_S1_axial_rotation	L4_L5_Flex_Ext	L4_L5_Lat_Bending	L4_L5_axial_rotation	L3_L4_Flex_Ext	L3_L4_Lat_Bending	L3_L4_axial_rotation	L2_L3_Flex_Ext	L2_L3_Lat_Bending	L2_L3_axial_rotation	L1_L2_Flex_Ext	L1_L2_Lat_Bending	L1_L2_axial_rotation	L1_T12_Flex_Ext	L1_T12_Lat_Bending	L1_T12_axial_rotation	Abs_r3	Abs_r2	Abs_r1	Abs_t1	Abs_t2	neck_flexion	neck_bending	neck_rotation	arm_flex_r	arm_add_r	arm_rot_r	elbow_flex_r	pro_sup_r	wrist_flex_r	wrist_dev_r	arm_flex_l	arm_add_l	arm_rot_l	elbow_flex_l	pro_sup_l	wrist_flex_l	wrist_dev_l
      2.93333333	    -19.71249899	      6.33430181	    -97.93623804	     -0.06189641	      0.96533764	     -1.11632204	     46.78810702	     -9.76272937	      0.00000000	     60.57060014	      1.05715640	      0.00000000	      0.00000000	      0.00000000	     46.78810702	     -9.76272937	      0.00000000	     60.57060014	      1.05715640	      0.00000000	      0.00000000	      0.00000000	     -0.03877246	     -1.30064979	      0.31411611	     -0.07200434	     -1.72986422	      0.33374837	     -0.06369928	     -3.16239991	      0.33374837	     -0.04431305	     -3.16239991	      0.27485160	     -0.03600411	     -2.65228506	      0.25521934	     -0.02215458	     -2.01470653	      0.23558709	     -0.27694781	    -14.71321059	      1.74701959	      0.00000000	      0.00000000	    -16.76264857	     16.14673745	     -4.33279351	    -14.24126906	    -33.29588172	    -60.13626278	     86.89723147	     89.99559364	      0.00000000	      0.00000000	     -3.03413657	    -40.42874941	      6.92174822	     23.33349039	     89.99559364	      0.00000000	      0.00000000
      2.95000000	    -19.73059553	      6.24738657	    -99.80875432	     -0.06586817	      0.96563578	     -1.10816097	     46.81583589	     -9.77495293	      0.00000000	     60.56394520	      1.05704025	      0.00000000	      0.00000000	      0.00000000	     46.81583589	     -9.77495293	      0.00000000	     60.56394520	      1.05704025	      0.00000000	      0.00000000	      0.00000000	     -0.04087312	     -1.42493149	      0.89013100	     -0.07590547	     -1.89515888	      0.94576418	     -0.06715045	     -3.46457843	      0.94576418	     -0.04671389	     -3.46457843	      0.77886462	     -0.03795478	     -2.90572030	      0.72323143	     -0.02335490	     -2.20721888	      0.66759825	     -0.29195259	    -16.11911002	      4.95064156	      0.00000000	      0.00000000	    -15.96158136	     16.03529142	     -6.85388676	    -17.41805318	    -32.86286592	    -63.66482330	     87.02119031	     89.99559364	      0.00000000	      0.00000000	     -1.64837184	    -40.38124379	      2.82378366	     24.34932483	     89.99559364	      0.00000000	      0.00000000
      2.96666667	    -20.24627259	      6.23092098	    -99.63906901	     -0.06780833	      0.96530934	     -1.09894088	     46.81970099	     -9.77660911	      0.00000000	     60.56301936	      1.05702409	      0.00000000	      0.00000000	      0.00000000	     46.81970099	     -9.77660911	      0.00000000	     60.56301936	      1.05702409	      0.00000000	      0.00000000	      0.00000000	     -0.04275808	     -1.49136816	      1.11252954	     -0.07940603	     -1.98351965	      1.18206264	     -0.07024725	     -3.62611254	      1.18206264	     -0.04886821	     -3.62611254	      0.97346335	     -0.03970515	     -3.04119795	      0.90393025	     -0.02443197	     -2.31012928	      0.83439716	     -0.30541669	    -16.87065487	      6.18755556	      0.00000000	      0.00000000	    -16.15181580	     15.93837825	     -7.24641521	    -20.57476598	    -32.53534870	    -66.78491993	     86.95159418	     89.99559364	      0.00000000	      0.00000000	     -0.25171638	    -40.66878677	      1.73585852	     25.31872920	     89.99559364	      0.00000000	      0.00000000
      2.98333333	    -21.39375979	      6.30312218	    -97.54665231	     -0.06732946	      0.96421081	     -1.08876891	     46.85272762	     -9.79037234	      0.00000000	     60.55512558	      1.05688632	      0.00000000	      0.00000000	      0.00000000	     46.85272762	     -9.79037234	      0.00000000	     60.55512558	      1.05688632	      0.00000000	      0.00000000	      0.00000000	     -0.04472119	     -1.48247324	      0.98375844	     -0.08305172	     -1.97168941	      1.04524334	     -0.07347244	     -3.60448543	      1.04524334	     -0.05111185	     -3.60448543	      0.86078863	     -0.04152810	     -3.02305943	      0.79930373	     -0.02555369	     -2.29635104	      0.73781883	     -0.31943898	    -16.77003376	      5.47136930	      0.00000000	      0.00000000	    -16.50676874	     14.92163447	    -10.80793829	    -23.48657998	    -32.53811475	    -69.43602415	     86.35758198	     89.99559364	      0.00000000	      0.00000000	      0.60940860	    -39.89576876	     -4.09533264	     26.30288939	     89.99559364	      0.00000000	      0.00000000
      3.00000000	    -22.81037905	      6.39323923	    -94.39340011	     -0.06583600	      0.96253963	     -1.07891105	     46.85621590	     -9.79178069	      0.00000000	     60.55429358	      1.05687180	      0.00000000	      0.00000000	      0.00000000	     46.85621590	     -9.79178069	      0.00000000	     60.55429358	      1.05687180	      0.00000000	      0.00000000	      0.00000000	     -0.04526476	     -1.43513174	      0.61552318	     -0.08406119	     -1.90872521	      0.65399338	     -0.07436548	     -3.48937931	      0.65399338	     -0.05173310	     -3.48937931	      0.53858279	     -0.04203286	     -2.92652064	      0.50011259	     -0.02586428	     -2.22301906	      0.46164239	     -0.32332167	    -16.23449726	      3.42335529	      0.00000000	      0.00000000	    -16.97729243	     14.95625281	    -10.89055020	    -25.94292161	    -32.70853900	    -71.62405438	     86.01640740	     89.99559364	      0.00000000	      0.00000000	      1.50138578	    -40.15224271	     -4.23569445	     27.06334391	     89.99559364	      0.00000000	      0.00000000
      3.01666667	    -24.49430458	      6.35266860	    -91.30254791	     -0.06429392	      0.96048170	     -1.07009563	     46.86082103	     -9.79362817	      0.00000000	     60.55319575	      1.05685264	      0.00000000	      0.00000000	      0.00000000	     46.86082103	     -9.79362817	      0.00000000	     60.55319575	      1.05685264	      0.00000000	      0.00000000	      0.00000000	     -0.04782925	     -1.34117297	      0.17198713	     -0.08882369	     -1.78376005	      0.18273633	     -0.07857867	     -3.26092796	      0.18273633	     -0.05466404	     -3.26092796	      0.15048874	     -0.04441424	     -2.73491992	      0.13973954	     -0.02732963	     -2.07747693	      0.12899035	     -0.34163952	    -15.17161688	      0.95654083	      0.00000000	      0.00000000	    -17.76583467	     14.86234591	    -10.62043079	    -27.79363617	    -33.44198175	    -73.11485347	     86.02745056	     89.99559364	      0.00000000	      0.00000000	      1.95879199	    -40.46894429	     -4.01203288	     27.69807249	     89.99559364	      0.00000000	      0.00000000
      3.03333333	    -25.98579334	      6.04219160	    -89.22667971	     -0.06384191	      0.95869568	     -1.06207570	     46.87408474	     -9.79887046	      0.00000000	     60.55003766	      1.05679752	      0.00000000	      0.00000000	      0.00000000	     46.87408474	     -9.79887046	      0.00000000	     60.55003766	      1.05679752	      0.00000000	      0.00000000	      0.00000000	     -0.04904611	     -1.25028304	     -0.22921482	     -0.09108353	     -1.66287644	     -0.24354075	     -0.08057785	     -3.03993818	     -0.24354075	     -0.05605480	     -3.03993818	     -0.20056297	     -0.04554422	     -2.54957717	     -0.18623704	     -0.02802495	     -1.93668843	     -0.17191112	     -0.35033145	    -14.14345178	     -1.27482406	      0.00000000	      0.00000000	    -19.46264088	     13.65806755	     -7.81312802	    -28.80103664	    -34.76030768	    -73.58364175	     86.69331104	     89.99559364	      0.00000000	      0.00000000	      1.44691076	    -41.27991728	     -2.81275765	     28.36682984	     89.99559364	      0.00000000	      0.00000000
